<svg t="1515133512165" class="icon" viewBox="0 0 1024 1024" version="1.1" xmlns="http://www.w3.org/2000/svg" p-id="2698" height="32" width="32"><path d="M512 65.29024c-197.18656 0-357.03808 159.85152-357.03808 357.03808 0 197.19168 279.80288 498.9696 279.80288 498.9696 42.65472 49.792 112.47104 50.05824 154.71104-0.26624 0 0 279.56736-301.51168 279.56736-498.70336-0.00512-197.18656-159.85152-357.03808-357.0432-357.03808z" fill="#FFFFFF" p-id="2699"></path><path d="M512.27136 979.18976c-35.26656 0-68.20352-15.71328-92.79488-44.25728-15.01184-16.2304-284.99456-311.0656-284.99456-512.60928 0-208.16384 169.35424-377.51808 377.51808-377.51808s377.51808 169.35424 377.51808 377.51808c0 201.23136-268.93824 495.22688-284.69248 512.26624-24.32 28.76416-57.16992 44.60032-92.55424 44.60032zM512 85.77024c-185.57952 0-336.55808 150.97856-336.55808 336.55808 0 186.86976 271.59552 482.08896 274.33984 485.04832l0.53248 0.59904c16.7168 19.51232 38.71744 30.25408 61.95712 30.25408 23.23456 0 45.07648-10.78272 61.51168-30.3616l0.6656-0.75776c2.7392-2.95424 274.10944-297.91744 274.10944-484.78208 0-185.57952-150.97856-336.55808-336.55808-336.55808z" fill="#333333" p-id="2700"></path><path d="M512 576.08704c-91.23328 0-165.16608-73.94304-165.16608-165.16608S420.77184 245.75488 512 245.75488c91.22304 0 165.16096 73.94304 165.16096 165.16608S603.22304 576.08704 512 576.08704z" fill="#FFC000" p-id="2701"></path><path d="M512 596.56704c-102.36928 0-185.64608-83.28192-185.64608-185.64608 0-102.36928 83.28192-185.64608 185.64608-185.64608 102.36416 0 185.64608 83.28192 185.64608 185.64608 0 102.36416-83.28192 185.64608-185.64608 185.64608z m0-330.33216c-79.77984 0-144.68608 64.90624-144.68608 144.68608S432.22016 555.60704 512 555.60704s144.68608-64.90624 144.68608-144.68608S591.77984 266.23488 512 266.23488z" fill="#333333" p-id="2702"></path></svg>